<mxfile host="app.diagrams.net" modified="2022-08-17T02:26:47.000Z" agent="5.0 (Windows NT 10.0; Win64; x64) AppleWebKit/537.36 (KHTML, like Gecko) Chrome/104.0.0.0 Safari/537.36" etag="G_JztBnYbGR757fApy6Q" version="20.2.4" type="github">
  <diagram id="MKKjbLZolvNxQAQ9OqWd" name="페이지-1">
    <mxGraphModel dx="2585" dy="1282" grid="1" gridSize="10" guides="1" tooltips="1" connect="1" arrows="1" fold="1" page="1" pageScale="1" pageWidth="827" pageHeight="1169" math="0" shadow="0">
      <root>
        <mxCell id="0" />
        <mxCell id="1" parent="0" />
        <mxCell id="lT2hFSRotsxK4qw7SLCA-4" value="" style="edgeStyle=orthogonalEdgeStyle;rounded=0;orthogonalLoop=1;jettySize=auto;html=1;fontSize=21;" edge="1" parent="1" source="lT2hFSRotsxK4qw7SLCA-1" target="lT2hFSRotsxK4qw7SLCA-3">
          <mxGeometry relative="1" as="geometry" />
        </mxCell>
        <mxCell id="lT2hFSRotsxK4qw7SLCA-8" value="" style="edgeStyle=orthogonalEdgeStyle;rounded=0;orthogonalLoop=1;jettySize=auto;html=1;fontSize=21;" edge="1" parent="1" source="lT2hFSRotsxK4qw7SLCA-1" target="lT2hFSRotsxK4qw7SLCA-7">
          <mxGeometry relative="1" as="geometry" />
        </mxCell>
        <mxCell id="lT2hFSRotsxK4qw7SLCA-65" value="비 로그인 서비스" style="edgeStyle=orthogonalEdgeStyle;rounded=0;orthogonalLoop=1;jettySize=auto;html=1;entryX=0;entryY=0.5;entryDx=0;entryDy=0;fontSize=21;" edge="1" parent="1" target="lT2hFSRotsxK4qw7SLCA-64">
          <mxGeometry relative="1" as="geometry">
            <mxPoint x="240" y="590" as="sourcePoint" />
            <Array as="points">
              <mxPoint x="240" y="150" />
            </Array>
          </mxGeometry>
        </mxCell>
        <mxCell id="lT2hFSRotsxK4qw7SLCA-1" value="&lt;font style=&quot;font-size: 21px;&quot;&gt;메인 페이지&lt;/font&gt;" style="rounded=1;whiteSpace=wrap;html=1;fillColor=#dae8fc;strokeColor=#6c8ebf;fontSize=21;" vertex="1" parent="1">
          <mxGeometry x="160" y="330" width="160" height="60" as="geometry" />
        </mxCell>
        <mxCell id="lT2hFSRotsxK4qw7SLCA-14" value="" style="edgeStyle=orthogonalEdgeStyle;rounded=0;orthogonalLoop=1;jettySize=auto;html=1;fontSize=21;" edge="1" parent="1" target="lT2hFSRotsxK4qw7SLCA-13">
          <mxGeometry relative="1" as="geometry">
            <mxPoint x="240" y="610" as="sourcePoint" />
          </mxGeometry>
        </mxCell>
        <mxCell id="lT2hFSRotsxK4qw7SLCA-26" value="실패" style="edgeStyle=orthogonalEdgeStyle;rounded=0;orthogonalLoop=1;jettySize=auto;html=1;fontSize=21;" edge="1" parent="1" source="lT2hFSRotsxK4qw7SLCA-3" target="lT2hFSRotsxK4qw7SLCA-25">
          <mxGeometry relative="1" as="geometry" />
        </mxCell>
        <mxCell id="lT2hFSRotsxK4qw7SLCA-53" style="edgeStyle=orthogonalEdgeStyle;rounded=0;orthogonalLoop=1;jettySize=auto;html=1;entryX=0;entryY=0.5;entryDx=0;entryDy=0;fontSize=21;" edge="1" parent="1" target="lT2hFSRotsxK4qw7SLCA-51">
          <mxGeometry relative="1" as="geometry">
            <mxPoint x="240" y="590" as="sourcePoint" />
            <Array as="points">
              <mxPoint x="240" y="1340" />
            </Array>
          </mxGeometry>
        </mxCell>
        <mxCell id="lT2hFSRotsxK4qw7SLCA-61" value="로그인 서비스" style="edgeStyle=orthogonalEdgeStyle;rounded=0;orthogonalLoop=1;jettySize=auto;html=1;entryX=0;entryY=0.5;entryDx=0;entryDy=0;fontSize=21;" edge="1" parent="1">
          <mxGeometry relative="1" as="geometry">
            <mxPoint x="240" y="570" as="sourcePoint" />
            <mxPoint x="420" y="1640" as="targetPoint" />
            <Array as="points">
              <mxPoint x="240" y="1640" />
              <mxPoint x="420" y="1640" />
            </Array>
          </mxGeometry>
        </mxCell>
        <mxCell id="lT2hFSRotsxK4qw7SLCA-94" style="edgeStyle=orthogonalEdgeStyle;rounded=0;orthogonalLoop=1;jettySize=auto;html=1;entryX=0;entryY=0.5;entryDx=0;entryDy=0;fontSize=21;" edge="1" parent="1" source="lT2hFSRotsxK4qw7SLCA-3" target="lT2hFSRotsxK4qw7SLCA-91">
          <mxGeometry relative="1" as="geometry">
            <Array as="points">
              <mxPoint x="240" y="2160" />
            </Array>
          </mxGeometry>
        </mxCell>
        <mxCell id="lT2hFSRotsxK4qw7SLCA-149" style="edgeStyle=orthogonalEdgeStyle;rounded=0;orthogonalLoop=1;jettySize=auto;html=1;entryX=0;entryY=0.5;entryDx=0;entryDy=0;fontSize=21;" edge="1" parent="1" source="lT2hFSRotsxK4qw7SLCA-3" target="lT2hFSRotsxK4qw7SLCA-146">
          <mxGeometry relative="1" as="geometry">
            <Array as="points">
              <mxPoint x="240" y="1900" />
            </Array>
          </mxGeometry>
        </mxCell>
        <mxCell id="lT2hFSRotsxK4qw7SLCA-3" value="&lt;font style=&quot;font-size: 21px;&quot;&gt;로그인&lt;/font&gt;" style="whiteSpace=wrap;html=1;fillColor=#dae8fc;strokeColor=#6c8ebf;rounded=1;fontSize=21;" vertex="1" parent="1">
          <mxGeometry x="180" y="470" width="120" height="60" as="geometry" />
        </mxCell>
        <mxCell id="lT2hFSRotsxK4qw7SLCA-10" value="" style="edgeStyle=orthogonalEdgeStyle;rounded=0;orthogonalLoop=1;jettySize=auto;html=1;fontSize=21;" edge="1" parent="1" source="lT2hFSRotsxK4qw7SLCA-7" target="lT2hFSRotsxK4qw7SLCA-9">
          <mxGeometry relative="1" as="geometry" />
        </mxCell>
        <mxCell id="lT2hFSRotsxK4qw7SLCA-7" value="&lt;font style=&quot;font-size: 21px;&quot;&gt;회원가입&lt;/font&gt;" style="whiteSpace=wrap;html=1;fillColor=#dae8fc;strokeColor=#6c8ebf;rounded=1;fontSize=21;" vertex="1" parent="1">
          <mxGeometry x="420" y="330" width="120" height="60" as="geometry" />
        </mxCell>
        <mxCell id="lT2hFSRotsxK4qw7SLCA-12" value="" style="edgeStyle=orthogonalEdgeStyle;rounded=0;orthogonalLoop=1;jettySize=auto;html=1;fontSize=21;" edge="1" parent="1" source="lT2hFSRotsxK4qw7SLCA-9" target="lT2hFSRotsxK4qw7SLCA-11">
          <mxGeometry relative="1" as="geometry" />
        </mxCell>
        <mxCell id="lT2hFSRotsxK4qw7SLCA-9" value="인증" style="whiteSpace=wrap;html=1;fillColor=#dae8fc;strokeColor=#6c8ebf;rounded=1;fontSize=21;" vertex="1" parent="1">
          <mxGeometry x="620" y="330" width="120" height="60" as="geometry" />
        </mxCell>
        <mxCell id="lT2hFSRotsxK4qw7SLCA-11" value="가입완료" style="whiteSpace=wrap;html=1;fillColor=#dae8fc;strokeColor=#6c8ebf;rounded=1;fontSize=21;" vertex="1" parent="1">
          <mxGeometry x="820" y="330" width="120" height="60" as="geometry" />
        </mxCell>
        <mxCell id="lT2hFSRotsxK4qw7SLCA-13" value="로그아웃" style="whiteSpace=wrap;html=1;fillColor=#dae8fc;strokeColor=#6c8ebf;rounded=1;fontSize=21;" vertex="1" parent="1">
          <mxGeometry x="420" y="580" width="120" height="60" as="geometry" />
        </mxCell>
        <mxCell id="lT2hFSRotsxK4qw7SLCA-86" style="edgeStyle=orthogonalEdgeStyle;rounded=0;orthogonalLoop=1;jettySize=auto;html=1;entryX=0;entryY=0.5;entryDx=0;entryDy=0;fontSize=21;" edge="1" parent="1" source="lT2hFSRotsxK4qw7SLCA-15" target="lT2hFSRotsxK4qw7SLCA-31">
          <mxGeometry relative="1" as="geometry" />
        </mxCell>
        <mxCell id="lT2hFSRotsxK4qw7SLCA-87" style="edgeStyle=orthogonalEdgeStyle;rounded=0;orthogonalLoop=1;jettySize=auto;html=1;entryX=0;entryY=0.5;entryDx=0;entryDy=0;fontSize=21;" edge="1" parent="1" source="lT2hFSRotsxK4qw7SLCA-15" target="lT2hFSRotsxK4qw7SLCA-37">
          <mxGeometry relative="1" as="geometry" />
        </mxCell>
        <mxCell id="lT2hFSRotsxK4qw7SLCA-15" value="예매&lt;span style=&quot;white-space: pre; font-size: 21px;&quot;&gt;	&lt;/span&gt;" style="whiteSpace=wrap;html=1;fillColor=#dae8fc;strokeColor=#6c8ebf;rounded=1;fontSize=21;" vertex="1" parent="1">
          <mxGeometry x="420" y="710" width="120" height="60" as="geometry" />
        </mxCell>
        <mxCell id="lT2hFSRotsxK4qw7SLCA-25" value="&lt;span style=&quot;font-size: 21px;&quot;&gt;로그인&lt;/span&gt;" style="whiteSpace=wrap;html=1;fillColor=#dae8fc;strokeColor=#6c8ebf;rounded=1;fontSize=21;" vertex="1" parent="1">
          <mxGeometry x="420" y="470" width="120" height="60" as="geometry" />
        </mxCell>
        <mxCell id="lT2hFSRotsxK4qw7SLCA-31" value="빠른예매" style="whiteSpace=wrap;html=1;fillColor=#dae8fc;strokeColor=#6c8ebf;rounded=1;fontSize=21;" vertex="1" parent="1">
          <mxGeometry x="620" y="780" width="120" height="60" as="geometry" />
        </mxCell>
        <mxCell id="lT2hFSRotsxK4qw7SLCA-39" value="" style="edgeStyle=orthogonalEdgeStyle;rounded=0;orthogonalLoop=1;jettySize=auto;html=1;fontSize=21;" edge="1" parent="1" target="lT2hFSRotsxK4qw7SLCA-38">
          <mxGeometry relative="1" as="geometry">
            <mxPoint x="240" y="1350" as="sourcePoint" />
            <Array as="points">
              <mxPoint x="240" y="970" />
              <mxPoint x="480" y="970" />
            </Array>
          </mxGeometry>
        </mxCell>
        <mxCell id="lT2hFSRotsxK4qw7SLCA-35" value="" style="edgeStyle=orthogonalEdgeStyle;rounded=0;orthogonalLoop=1;jettySize=auto;html=1;fontSize=21;" edge="1" parent="1">
          <mxGeometry relative="1" as="geometry">
            <mxPoint x="240" y="739.29" as="sourcePoint" />
            <mxPoint x="420" y="739.29" as="targetPoint" />
          </mxGeometry>
        </mxCell>
        <mxCell id="lT2hFSRotsxK4qw7SLCA-37" value="예매" style="whiteSpace=wrap;html=1;fillColor=#dae8fc;strokeColor=#6c8ebf;rounded=1;fontSize=21;" vertex="1" parent="1">
          <mxGeometry x="620" y="640" width="120" height="60" as="geometry" />
        </mxCell>
        <mxCell id="lT2hFSRotsxK4qw7SLCA-44" style="edgeStyle=orthogonalEdgeStyle;rounded=0;orthogonalLoop=1;jettySize=auto;html=1;entryX=0;entryY=0.5;entryDx=0;entryDy=0;fontSize=21;" edge="1" parent="1" source="lT2hFSRotsxK4qw7SLCA-38" target="lT2hFSRotsxK4qw7SLCA-41">
          <mxGeometry relative="1" as="geometry" />
        </mxCell>
        <mxCell id="lT2hFSRotsxK4qw7SLCA-46" style="edgeStyle=orthogonalEdgeStyle;rounded=0;orthogonalLoop=1;jettySize=auto;html=1;entryX=0;entryY=0.5;entryDx=0;entryDy=0;fontSize=21;" edge="1" parent="1" source="lT2hFSRotsxK4qw7SLCA-38" target="lT2hFSRotsxK4qw7SLCA-45">
          <mxGeometry relative="1" as="geometry" />
        </mxCell>
        <mxCell id="lT2hFSRotsxK4qw7SLCA-48" style="edgeStyle=orthogonalEdgeStyle;rounded=0;orthogonalLoop=1;jettySize=auto;html=1;entryX=0;entryY=0.5;entryDx=0;entryDy=0;fontSize=21;" edge="1" parent="1" source="lT2hFSRotsxK4qw7SLCA-38" target="lT2hFSRotsxK4qw7SLCA-47">
          <mxGeometry relative="1" as="geometry" />
        </mxCell>
        <mxCell id="lT2hFSRotsxK4qw7SLCA-50" style="edgeStyle=orthogonalEdgeStyle;rounded=0;orthogonalLoop=1;jettySize=auto;html=1;entryX=0;entryY=0.5;entryDx=0;entryDy=0;fontSize=21;" edge="1" parent="1" source="lT2hFSRotsxK4qw7SLCA-38" target="lT2hFSRotsxK4qw7SLCA-49">
          <mxGeometry relative="1" as="geometry" />
        </mxCell>
        <mxCell id="lT2hFSRotsxK4qw7SLCA-38" value="마이페이지" style="whiteSpace=wrap;html=1;fillColor=#dae8fc;strokeColor=#6c8ebf;rounded=1;fontSize=21;" vertex="1" parent="1">
          <mxGeometry x="420" y="940" width="120" height="60" as="geometry" />
        </mxCell>
        <mxCell id="lT2hFSRotsxK4qw7SLCA-151" value="" style="edgeStyle=orthogonalEdgeStyle;rounded=0;orthogonalLoop=1;jettySize=auto;html=1;fontSize=21;" edge="1" parent="1" source="lT2hFSRotsxK4qw7SLCA-41" target="lT2hFSRotsxK4qw7SLCA-150">
          <mxGeometry relative="1" as="geometry" />
        </mxCell>
        <mxCell id="lT2hFSRotsxK4qw7SLCA-41" value="장바구니" style="whiteSpace=wrap;html=1;fillColor=#dae8fc;strokeColor=#6c8ebf;rounded=1;fontSize=21;" vertex="1" parent="1">
          <mxGeometry x="620" y="870" width="120" height="60" as="geometry" />
        </mxCell>
        <mxCell id="lT2hFSRotsxK4qw7SLCA-45" value="나의 예매 내역" style="whiteSpace=wrap;html=1;fillColor=#dae8fc;strokeColor=#6c8ebf;rounded=1;fontSize=21;" vertex="1" parent="1">
          <mxGeometry x="620" y="950" width="150" height="60" as="geometry" />
        </mxCell>
        <mxCell id="lT2hFSRotsxK4qw7SLCA-47" value="개인 정보 수정" style="whiteSpace=wrap;html=1;fillColor=#dae8fc;strokeColor=#6c8ebf;rounded=1;fontSize=21;" vertex="1" parent="1">
          <mxGeometry x="620" y="1030" width="150" height="60" as="geometry" />
        </mxCell>
        <mxCell id="lT2hFSRotsxK4qw7SLCA-49" value="회원 탈퇴" style="whiteSpace=wrap;html=1;fillColor=#dae8fc;strokeColor=#6c8ebf;rounded=1;fontSize=21;" vertex="1" parent="1">
          <mxGeometry x="620" y="1109" width="120" height="60" as="geometry" />
        </mxCell>
        <mxCell id="lT2hFSRotsxK4qw7SLCA-55" value="" style="edgeStyle=orthogonalEdgeStyle;rounded=0;orthogonalLoop=1;jettySize=auto;html=1;fontSize=21;entryX=0;entryY=0.5;entryDx=0;entryDy=0;" edge="1" parent="1" source="lT2hFSRotsxK4qw7SLCA-51" target="lT2hFSRotsxK4qw7SLCA-54">
          <mxGeometry relative="1" as="geometry" />
        </mxCell>
        <mxCell id="lT2hFSRotsxK4qw7SLCA-74" style="edgeStyle=orthogonalEdgeStyle;rounded=0;orthogonalLoop=1;jettySize=auto;html=1;fontSize=21;entryX=0;entryY=0.5;entryDx=0;entryDy=0;" edge="1" parent="1" source="lT2hFSRotsxK4qw7SLCA-51" target="lT2hFSRotsxK4qw7SLCA-73">
          <mxGeometry relative="1" as="geometry" />
        </mxCell>
        <mxCell id="lT2hFSRotsxK4qw7SLCA-85" style="edgeStyle=orthogonalEdgeStyle;rounded=0;orthogonalLoop=1;jettySize=auto;html=1;fontSize=21;" edge="1" parent="1" source="lT2hFSRotsxK4qw7SLCA-51" target="lT2hFSRotsxK4qw7SLCA-84">
          <mxGeometry relative="1" as="geometry" />
        </mxCell>
        <mxCell id="lT2hFSRotsxK4qw7SLCA-51" value="커뮤니티" style="whiteSpace=wrap;html=1;fillColor=#dae8fc;strokeColor=#6c8ebf;rounded=1;fontSize=21;" vertex="1" parent="1">
          <mxGeometry x="420" y="1310" width="120" height="60" as="geometry" />
        </mxCell>
        <mxCell id="lT2hFSRotsxK4qw7SLCA-54" value="번개모임" style="whiteSpace=wrap;html=1;fillColor=#dae8fc;strokeColor=#6c8ebf;rounded=1;fontSize=21;" vertex="1" parent="1">
          <mxGeometry x="620" y="1220" width="120" height="60" as="geometry" />
        </mxCell>
        <mxCell id="lT2hFSRotsxK4qw7SLCA-64" value="로그인, 영화정보, 커뮤니티, 자유게시판, 공지사항&amp;nbsp;" style="whiteSpace=wrap;html=1;fillColor=#dae8fc;strokeColor=#6c8ebf;rounded=1;fontSize=21;" vertex="1" parent="1">
          <mxGeometry x="420" y="120" width="400" height="60" as="geometry" />
        </mxCell>
        <mxCell id="lT2hFSRotsxK4qw7SLCA-73" value="자유게시판" style="whiteSpace=wrap;html=1;fillColor=#dae8fc;strokeColor=#6c8ebf;rounded=1;fontSize=21;" vertex="1" parent="1">
          <mxGeometry x="620" y="1410" width="120" height="60" as="geometry" />
        </mxCell>
        <mxCell id="lT2hFSRotsxK4qw7SLCA-76" style="edgeStyle=orthogonalEdgeStyle;rounded=0;orthogonalLoop=1;jettySize=auto;html=1;entryX=0;entryY=0.5;entryDx=0;entryDy=0;fontSize=21;" edge="1" parent="1" source="lT2hFSRotsxK4qw7SLCA-77" target="lT2hFSRotsxK4qw7SLCA-80">
          <mxGeometry relative="1" as="geometry" />
        </mxCell>
        <mxCell id="lT2hFSRotsxK4qw7SLCA-82" style="edgeStyle=orthogonalEdgeStyle;rounded=0;orthogonalLoop=1;jettySize=auto;html=1;entryX=0;entryY=0.5;entryDx=0;entryDy=0;fontSize=21;" edge="1" parent="1" source="lT2hFSRotsxK4qw7SLCA-77" target="lT2hFSRotsxK4qw7SLCA-78">
          <mxGeometry relative="1" as="geometry" />
        </mxCell>
        <mxCell id="lT2hFSRotsxK4qw7SLCA-77" value="고객센터" style="whiteSpace=wrap;html=1;fillColor=#dae8fc;strokeColor=#6c8ebf;rounded=1;fontSize=21;" vertex="1" parent="1">
          <mxGeometry x="420" y="1610" width="120" height="60" as="geometry" />
        </mxCell>
        <mxCell id="lT2hFSRotsxK4qw7SLCA-78" value="공지사항" style="whiteSpace=wrap;html=1;fillColor=#dae8fc;strokeColor=#6c8ebf;rounded=1;fontSize=21;" vertex="1" parent="1">
          <mxGeometry x="620" y="1540" width="120" height="60" as="geometry" />
        </mxCell>
        <mxCell id="lT2hFSRotsxK4qw7SLCA-80" value="문의사항" style="whiteSpace=wrap;html=1;fillColor=#dae8fc;strokeColor=#6c8ebf;rounded=1;fontSize=21;" vertex="1" parent="1">
          <mxGeometry x="620" y="1670" width="120" height="60" as="geometry" />
        </mxCell>
        <mxCell id="lT2hFSRotsxK4qw7SLCA-84" value="영화관 후기" style="whiteSpace=wrap;html=1;fillColor=#dae8fc;strokeColor=#6c8ebf;rounded=1;fontSize=21;" vertex="1" parent="1">
          <mxGeometry x="620" y="1310" width="120" height="60" as="geometry" />
        </mxCell>
        <mxCell id="lT2hFSRotsxK4qw7SLCA-89" style="edgeStyle=orthogonalEdgeStyle;rounded=0;orthogonalLoop=1;jettySize=auto;html=1;entryX=0;entryY=0.5;entryDx=0;entryDy=0;fontSize=21;" edge="1" parent="1" source="lT2hFSRotsxK4qw7SLCA-91" target="lT2hFSRotsxK4qw7SLCA-93">
          <mxGeometry relative="1" as="geometry" />
        </mxCell>
        <mxCell id="lT2hFSRotsxK4qw7SLCA-90" style="edgeStyle=orthogonalEdgeStyle;rounded=0;orthogonalLoop=1;jettySize=auto;html=1;entryX=0;entryY=0.5;entryDx=0;entryDy=0;fontSize=21;" edge="1" parent="1" source="lT2hFSRotsxK4qw7SLCA-91" target="lT2hFSRotsxK4qw7SLCA-92">
          <mxGeometry relative="1" as="geometry" />
        </mxCell>
        <mxCell id="lT2hFSRotsxK4qw7SLCA-91" value="이벤트" style="whiteSpace=wrap;html=1;fillColor=#dae8fc;strokeColor=#6c8ebf;rounded=1;fontSize=21;" vertex="1" parent="1">
          <mxGeometry x="414" y="2130" width="120" height="60" as="geometry" />
        </mxCell>
        <mxCell id="lT2hFSRotsxK4qw7SLCA-92" value="룰렛" style="whiteSpace=wrap;html=1;fillColor=#dae8fc;strokeColor=#6c8ebf;rounded=1;fontSize=21;" vertex="1" parent="1">
          <mxGeometry x="614" y="2060" width="120" height="60" as="geometry" />
        </mxCell>
        <mxCell id="lT2hFSRotsxK4qw7SLCA-93" value="사다리" style="whiteSpace=wrap;html=1;fillColor=#dae8fc;strokeColor=#6c8ebf;rounded=1;fontSize=21;" vertex="1" parent="1">
          <mxGeometry x="614" y="2190" width="120" height="60" as="geometry" />
        </mxCell>
        <mxCell id="lT2hFSRotsxK4qw7SLCA-95" value="" style="edgeStyle=orthogonalEdgeStyle;rounded=0;orthogonalLoop=1;jettySize=auto;html=1;fontSize=21;" edge="1" parent="1" source="lT2hFSRotsxK4qw7SLCA-97" target="lT2hFSRotsxK4qw7SLCA-103">
          <mxGeometry relative="1" as="geometry" />
        </mxCell>
        <mxCell id="lT2hFSRotsxK4qw7SLCA-97" value="&lt;font style=&quot;font-size: 21px;&quot;&gt;관리자 페이지&lt;/font&gt;" style="rounded=1;whiteSpace=wrap;html=1;fillColor=#dae8fc;strokeColor=#6c8ebf;fontSize=21;" vertex="1" parent="1">
          <mxGeometry x="1080" y="330" width="160" height="60" as="geometry" />
        </mxCell>
        <mxCell id="lT2hFSRotsxK4qw7SLCA-98" value="" style="edgeStyle=orthogonalEdgeStyle;rounded=0;orthogonalLoop=1;jettySize=auto;html=1;fontSize=21;" edge="1" parent="1" target="lT2hFSRotsxK4qw7SLCA-109">
          <mxGeometry relative="1" as="geometry">
            <mxPoint x="1160" y="610" as="sourcePoint" />
          </mxGeometry>
        </mxCell>
        <mxCell id="lT2hFSRotsxK4qw7SLCA-99" value="실패" style="edgeStyle=orthogonalEdgeStyle;rounded=0;orthogonalLoop=1;jettySize=auto;html=1;fontSize=21;" edge="1" parent="1" source="lT2hFSRotsxK4qw7SLCA-103" target="lT2hFSRotsxK4qw7SLCA-113">
          <mxGeometry relative="1" as="geometry" />
        </mxCell>
        <mxCell id="lT2hFSRotsxK4qw7SLCA-101" value="로그인 서비스" style="edgeStyle=orthogonalEdgeStyle;rounded=0;orthogonalLoop=1;jettySize=auto;html=1;fontSize=21;" edge="1" parent="1" target="lT2hFSRotsxK4qw7SLCA-135">
          <mxGeometry relative="1" as="geometry">
            <mxPoint x="1160" y="760" as="sourcePoint" />
            <mxPoint x="1340" y="1830" as="targetPoint" />
            <Array as="points">
              <mxPoint x="1160" y="1270" />
            </Array>
          </mxGeometry>
        </mxCell>
        <mxCell id="lT2hFSRotsxK4qw7SLCA-102" style="edgeStyle=orthogonalEdgeStyle;rounded=0;orthogonalLoop=1;jettySize=auto;html=1;fontSize=21;" edge="1" parent="1" source="lT2hFSRotsxK4qw7SLCA-103" target="lT2hFSRotsxK4qw7SLCA-141">
          <mxGeometry relative="1" as="geometry">
            <Array as="points">
              <mxPoint x="1160" y="2600" />
            </Array>
            <mxPoint x="1160.090909090909" y="730" as="sourcePoint" />
          </mxGeometry>
        </mxCell>
        <mxCell id="lT2hFSRotsxK4qw7SLCA-164" style="edgeStyle=orthogonalEdgeStyle;rounded=0;orthogonalLoop=1;jettySize=auto;html=1;entryX=0;entryY=0.5;entryDx=0;entryDy=0;fontSize=21;" edge="1" parent="1" source="lT2hFSRotsxK4qw7SLCA-103" target="lT2hFSRotsxK4qw7SLCA-122">
          <mxGeometry relative="1" as="geometry">
            <Array as="points">
              <mxPoint x="1160" y="1020" />
            </Array>
          </mxGeometry>
        </mxCell>
        <mxCell id="lT2hFSRotsxK4qw7SLCA-103" value="&lt;font style=&quot;font-size: 21px;&quot;&gt;로그인&lt;/font&gt;" style="whiteSpace=wrap;html=1;fillColor=#dae8fc;strokeColor=#6c8ebf;rounded=1;fontSize=21;" vertex="1" parent="1">
          <mxGeometry x="1100" y="470" width="120" height="60" as="geometry" />
        </mxCell>
        <mxCell id="lT2hFSRotsxK4qw7SLCA-109" value="로그아웃" style="whiteSpace=wrap;html=1;fillColor=#dae8fc;strokeColor=#6c8ebf;rounded=1;fontSize=21;" vertex="1" parent="1">
          <mxGeometry x="1340" y="580" width="120" height="60" as="geometry" />
        </mxCell>
        <mxCell id="lT2hFSRotsxK4qw7SLCA-113" value="&lt;span style=&quot;font-size: 21px;&quot;&gt;로그인&lt;/span&gt;" style="whiteSpace=wrap;html=1;fillColor=#dae8fc;strokeColor=#6c8ebf;rounded=1;fontSize=21;" vertex="1" parent="1">
          <mxGeometry x="1340" y="470" width="120" height="60" as="geometry" />
        </mxCell>
        <mxCell id="lT2hFSRotsxK4qw7SLCA-116" value="" style="edgeStyle=orthogonalEdgeStyle;rounded=0;orthogonalLoop=1;jettySize=auto;html=1;fontSize=21;entryX=0;entryY=0.5;entryDx=0;entryDy=0;" edge="1" parent="1" target="lT2hFSRotsxK4qw7SLCA-159">
          <mxGeometry relative="1" as="geometry">
            <mxPoint x="1154" y="769.29" as="sourcePoint" />
            <mxPoint x="1334" y="769.29" as="targetPoint" />
          </mxGeometry>
        </mxCell>
        <mxCell id="lT2hFSRotsxK4qw7SLCA-122" value="예매 관리" style="whiteSpace=wrap;html=1;fillColor=#dae8fc;strokeColor=#6c8ebf;rounded=1;fontSize=21;" vertex="1" parent="1">
          <mxGeometry x="1334" y="990" width="120" height="60" as="geometry" />
        </mxCell>
        <mxCell id="lT2hFSRotsxK4qw7SLCA-133" style="edgeStyle=orthogonalEdgeStyle;rounded=0;orthogonalLoop=1;jettySize=auto;html=1;entryX=0;entryY=0.5;entryDx=0;entryDy=0;fontSize=21;" edge="1" parent="1" source="lT2hFSRotsxK4qw7SLCA-135" target="lT2hFSRotsxK4qw7SLCA-137">
          <mxGeometry relative="1" as="geometry" />
        </mxCell>
        <mxCell id="lT2hFSRotsxK4qw7SLCA-172" style="edgeStyle=orthogonalEdgeStyle;rounded=0;orthogonalLoop=1;jettySize=auto;html=1;entryX=0;entryY=0.5;entryDx=0;entryDy=0;fontSize=21;" edge="1" parent="1" source="lT2hFSRotsxK4qw7SLCA-135" target="lT2hFSRotsxK4qw7SLCA-136">
          <mxGeometry relative="1" as="geometry" />
        </mxCell>
        <mxCell id="lT2hFSRotsxK4qw7SLCA-135" value="상영관리" style="whiteSpace=wrap;html=1;fillColor=#dae8fc;strokeColor=#6c8ebf;rounded=1;fontSize=21;" vertex="1" parent="1">
          <mxGeometry x="1340" y="1235" width="120" height="60" as="geometry" />
        </mxCell>
        <mxCell id="lT2hFSRotsxK4qw7SLCA-174" value="" style="edgeStyle=orthogonalEdgeStyle;rounded=0;orthogonalLoop=1;jettySize=auto;html=1;fontSize=21;" edge="1" parent="1" target="lT2hFSRotsxK4qw7SLCA-173">
          <mxGeometry relative="1" as="geometry">
            <mxPoint x="1646" y="1325" as="sourcePoint" />
          </mxGeometry>
        </mxCell>
        <mxCell id="lT2hFSRotsxK4qw7SLCA-180" value="" style="edgeStyle=orthogonalEdgeStyle;rounded=0;orthogonalLoop=1;jettySize=auto;html=1;fontSize=21;" edge="1" parent="1" source="lT2hFSRotsxK4qw7SLCA-136" target="lT2hFSRotsxK4qw7SLCA-179">
          <mxGeometry relative="1" as="geometry" />
        </mxCell>
        <mxCell id="lT2hFSRotsxK4qw7SLCA-136" value="상영 리스트" style="whiteSpace=wrap;html=1;fillColor=#dae8fc;strokeColor=#6c8ebf;rounded=1;fontSize=21;" vertex="1" parent="1">
          <mxGeometry x="1540" y="1175" width="120" height="60" as="geometry" />
        </mxCell>
        <mxCell id="lT2hFSRotsxK4qw7SLCA-137" value="상영 시간표" style="whiteSpace=wrap;html=1;fillColor=#dae8fc;strokeColor=#6c8ebf;rounded=1;fontSize=21;" vertex="1" parent="1">
          <mxGeometry x="1540" y="1295" width="120" height="60" as="geometry" />
        </mxCell>
        <mxCell id="lT2hFSRotsxK4qw7SLCA-140" style="edgeStyle=orthogonalEdgeStyle;rounded=0;orthogonalLoop=1;jettySize=auto;html=1;entryX=0;entryY=0.5;entryDx=0;entryDy=0;fontSize=21;" edge="1" parent="1" source="lT2hFSRotsxK4qw7SLCA-141" target="lT2hFSRotsxK4qw7SLCA-142">
          <mxGeometry relative="1" as="geometry" />
        </mxCell>
        <mxCell id="lT2hFSRotsxK4qw7SLCA-141" value="이벤트" style="whiteSpace=wrap;html=1;fillColor=#dae8fc;strokeColor=#6c8ebf;rounded=1;fontSize=21;" vertex="1" parent="1">
          <mxGeometry x="1340" y="2565" width="120" height="60" as="geometry" />
        </mxCell>
        <mxCell id="lT2hFSRotsxK4qw7SLCA-142" value="상품 등록" style="whiteSpace=wrap;html=1;fillColor=#dae8fc;strokeColor=#6c8ebf;rounded=1;fontSize=21;" vertex="1" parent="1">
          <mxGeometry x="1540" y="2565" width="120" height="60" as="geometry" />
        </mxCell>
        <mxCell id="lT2hFSRotsxK4qw7SLCA-145" style="edgeStyle=orthogonalEdgeStyle;rounded=0;orthogonalLoop=1;jettySize=auto;html=1;entryX=0;entryY=0.5;entryDx=0;entryDy=0;fontSize=21;" edge="1" parent="1" source="lT2hFSRotsxK4qw7SLCA-146" target="lT2hFSRotsxK4qw7SLCA-147">
          <mxGeometry relative="1" as="geometry" />
        </mxCell>
        <mxCell id="lT2hFSRotsxK4qw7SLCA-146" value="매점" style="whiteSpace=wrap;html=1;fillColor=#dae8fc;strokeColor=#6c8ebf;rounded=1;fontSize=21;" vertex="1" parent="1">
          <mxGeometry x="414" y="1870" width="120" height="60" as="geometry" />
        </mxCell>
        <mxCell id="lT2hFSRotsxK4qw7SLCA-153" value="" style="edgeStyle=orthogonalEdgeStyle;rounded=0;orthogonalLoop=1;jettySize=auto;html=1;fontSize=21;" edge="1" parent="1" source="lT2hFSRotsxK4qw7SLCA-147" target="lT2hFSRotsxK4qw7SLCA-152">
          <mxGeometry relative="1" as="geometry">
            <Array as="points">
              <mxPoint x="780" y="1900" />
              <mxPoint x="780" y="1830" />
            </Array>
          </mxGeometry>
        </mxCell>
        <mxCell id="lT2hFSRotsxK4qw7SLCA-154" style="edgeStyle=orthogonalEdgeStyle;rounded=0;orthogonalLoop=1;jettySize=auto;html=1;entryX=0;entryY=0.5;entryDx=0;entryDy=0;fontSize=21;" edge="1" parent="1" source="lT2hFSRotsxK4qw7SLCA-147" target="lT2hFSRotsxK4qw7SLCA-148">
          <mxGeometry relative="1" as="geometry" />
        </mxCell>
        <mxCell id="lT2hFSRotsxK4qw7SLCA-147" value="삼품" style="whiteSpace=wrap;html=1;fillColor=#dae8fc;strokeColor=#6c8ebf;rounded=1;fontSize=21;" vertex="1" parent="1">
          <mxGeometry x="620" y="1870" width="120" height="60" as="geometry" />
        </mxCell>
        <mxCell id="lT2hFSRotsxK4qw7SLCA-148" value="결제하기" style="whiteSpace=wrap;html=1;fillColor=#dae8fc;strokeColor=#6c8ebf;rounded=1;fontSize=21;" vertex="1" parent="1">
          <mxGeometry x="820" y="1950" width="120" height="60" as="geometry" />
        </mxCell>
        <mxCell id="lT2hFSRotsxK4qw7SLCA-150" value="결제" style="whiteSpace=wrap;html=1;fontSize=21;fillColor=#dae8fc;strokeColor=#6c8ebf;rounded=1;" vertex="1" parent="1">
          <mxGeometry x="820" y="870" width="120" height="60" as="geometry" />
        </mxCell>
        <mxCell id="lT2hFSRotsxK4qw7SLCA-152" value="장바구니" style="whiteSpace=wrap;html=1;fontSize=21;fillColor=#dae8fc;strokeColor=#6c8ebf;rounded=1;" vertex="1" parent="1">
          <mxGeometry x="820" y="1800" width="120" height="60" as="geometry" />
        </mxCell>
        <mxCell id="lT2hFSRotsxK4qw7SLCA-155" style="edgeStyle=orthogonalEdgeStyle;rounded=0;orthogonalLoop=1;jettySize=auto;html=1;entryX=0;entryY=0.5;entryDx=0;entryDy=0;fontSize=21;" edge="1" parent="1" source="lT2hFSRotsxK4qw7SLCA-159" target="lT2hFSRotsxK4qw7SLCA-160">
          <mxGeometry relative="1" as="geometry" />
        </mxCell>
        <mxCell id="lT2hFSRotsxK4qw7SLCA-156" style="edgeStyle=orthogonalEdgeStyle;rounded=0;orthogonalLoop=1;jettySize=auto;html=1;entryX=0;entryY=0.5;entryDx=0;entryDy=0;fontSize=21;" edge="1" parent="1" source="lT2hFSRotsxK4qw7SLCA-159" target="lT2hFSRotsxK4qw7SLCA-161">
          <mxGeometry relative="1" as="geometry" />
        </mxCell>
        <mxCell id="lT2hFSRotsxK4qw7SLCA-157" style="edgeStyle=orthogonalEdgeStyle;rounded=0;orthogonalLoop=1;jettySize=auto;html=1;entryX=0;entryY=0.5;entryDx=0;entryDy=0;fontSize=21;" edge="1" parent="1" source="lT2hFSRotsxK4qw7SLCA-159" target="lT2hFSRotsxK4qw7SLCA-162">
          <mxGeometry relative="1" as="geometry" />
        </mxCell>
        <mxCell id="lT2hFSRotsxK4qw7SLCA-159" value="영화 관리" style="whiteSpace=wrap;html=1;fillColor=#dae8fc;strokeColor=#6c8ebf;rounded=1;fontSize=21;" vertex="1" parent="1">
          <mxGeometry x="1340" y="740" width="120" height="60" as="geometry" />
        </mxCell>
        <mxCell id="lT2hFSRotsxK4qw7SLCA-160" value="영화 정보 등록" style="whiteSpace=wrap;html=1;fillColor=#dae8fc;strokeColor=#6c8ebf;rounded=1;fontSize=21;" vertex="1" parent="1">
          <mxGeometry x="1534" y="670" width="120" height="60" as="geometry" />
        </mxCell>
        <mxCell id="lT2hFSRotsxK4qw7SLCA-161" value="영화 정보 &lt;br style=&quot;font-size: 21px;&quot;&gt;수정 / 삭제" style="whiteSpace=wrap;html=1;fillColor=#dae8fc;strokeColor=#6c8ebf;rounded=1;fontSize=21;" vertex="1" parent="1">
          <mxGeometry x="1534" y="740" width="120" height="60" as="geometry" />
        </mxCell>
        <mxCell id="lT2hFSRotsxK4qw7SLCA-162" value="영화 리스트" style="whiteSpace=wrap;html=1;fillColor=#dae8fc;strokeColor=#6c8ebf;rounded=1;fontSize=21;" vertex="1" parent="1">
          <mxGeometry x="1534" y="810" width="120" height="60" as="geometry" />
        </mxCell>
        <mxCell id="lT2hFSRotsxK4qw7SLCA-165" style="edgeStyle=orthogonalEdgeStyle;rounded=0;orthogonalLoop=1;jettySize=auto;html=1;entryX=0;entryY=0.5;entryDx=0;entryDy=0;fontSize=21;" edge="1" parent="1" target="lT2hFSRotsxK4qw7SLCA-168">
          <mxGeometry relative="1" as="geometry">
            <mxPoint x="1460" y="1019.9999999999995" as="sourcePoint" />
          </mxGeometry>
        </mxCell>
        <mxCell id="lT2hFSRotsxK4qw7SLCA-166" style="edgeStyle=orthogonalEdgeStyle;rounded=0;orthogonalLoop=1;jettySize=auto;html=1;entryX=0;entryY=0.5;entryDx=0;entryDy=0;fontSize=21;" edge="1" parent="1" target="lT2hFSRotsxK4qw7SLCA-169">
          <mxGeometry relative="1" as="geometry">
            <mxPoint x="1460" y="1020" as="sourcePoint" />
          </mxGeometry>
        </mxCell>
        <mxCell id="lT2hFSRotsxK4qw7SLCA-167" style="edgeStyle=orthogonalEdgeStyle;rounded=0;orthogonalLoop=1;jettySize=auto;html=1;entryX=0;entryY=0.5;entryDx=0;entryDy=0;fontSize=21;" edge="1" parent="1" target="lT2hFSRotsxK4qw7SLCA-170">
          <mxGeometry relative="1" as="geometry">
            <mxPoint x="1460" y="1019.9999999999995" as="sourcePoint" />
          </mxGeometry>
        </mxCell>
        <mxCell id="lT2hFSRotsxK4qw7SLCA-168" value="예매 정보 검색" style="whiteSpace=wrap;html=1;fillColor=#dae8fc;strokeColor=#6c8ebf;rounded=1;fontSize=21;" vertex="1" parent="1">
          <mxGeometry x="1540" y="920" width="120" height="60" as="geometry" />
        </mxCell>
        <mxCell id="lT2hFSRotsxK4qw7SLCA-169" value="예매 정보&lt;br style=&quot;font-size: 21px;&quot;&gt;수정 / 삭제" style="whiteSpace=wrap;html=1;fillColor=#dae8fc;strokeColor=#6c8ebf;rounded=1;fontSize=21;" vertex="1" parent="1">
          <mxGeometry x="1540" y="990" width="120" height="60" as="geometry" />
        </mxCell>
        <mxCell id="lT2hFSRotsxK4qw7SLCA-170" value="예매 리스트" style="whiteSpace=wrap;html=1;fillColor=#dae8fc;strokeColor=#6c8ebf;rounded=1;fontSize=21;" vertex="1" parent="1">
          <mxGeometry x="1540" y="1060" width="120" height="60" as="geometry" />
        </mxCell>
        <mxCell id="lT2hFSRotsxK4qw7SLCA-173" value="등록&amp;nbsp; / 수정 / 삭제" style="whiteSpace=wrap;html=1;fontSize=21;fillColor=#dae8fc;strokeColor=#6c8ebf;rounded=1;" vertex="1" parent="1">
          <mxGeometry x="1742" y="1295" width="204" height="60" as="geometry" />
        </mxCell>
        <mxCell id="lT2hFSRotsxK4qw7SLCA-179" value="완료된 상영 리스트" style="whiteSpace=wrap;html=1;fontSize=21;fillColor=#dae8fc;strokeColor=#6c8ebf;rounded=1;" vertex="1" parent="1">
          <mxGeometry x="1740" y="1175" width="206" height="60" as="geometry" />
        </mxCell>
        <mxCell id="lT2hFSRotsxK4qw7SLCA-181" value="로그인 서비스" style="edgeStyle=orthogonalEdgeStyle;rounded=0;orthogonalLoop=1;jettySize=auto;html=1;fontSize=21;" edge="1" parent="1" target="lT2hFSRotsxK4qw7SLCA-184">
          <mxGeometry relative="1" as="geometry">
            <mxPoint x="1159.9999999999995" y="1040" as="sourcePoint" />
            <mxPoint x="1340" y="2110" as="targetPoint" />
            <Array as="points">
              <mxPoint x="1160" y="1550" />
            </Array>
          </mxGeometry>
        </mxCell>
        <mxCell id="lT2hFSRotsxK4qw7SLCA-183" style="edgeStyle=orthogonalEdgeStyle;rounded=0;orthogonalLoop=1;jettySize=auto;html=1;entryX=0;entryY=0.5;entryDx=0;entryDy=0;fontSize=21;exitX=1;exitY=0.5;exitDx=0;exitDy=0;" edge="1" parent="1" source="lT2hFSRotsxK4qw7SLCA-184" target="lT2hFSRotsxK4qw7SLCA-187">
          <mxGeometry relative="1" as="geometry">
            <mxPoint x="1460" y="1498.9999999999995" as="sourcePoint" />
          </mxGeometry>
        </mxCell>
        <mxCell id="lT2hFSRotsxK4qw7SLCA-192" value="" style="edgeStyle=orthogonalEdgeStyle;rounded=0;orthogonalLoop=1;jettySize=auto;html=1;fontSize=21;" edge="1" parent="1" source="lT2hFSRotsxK4qw7SLCA-184" target="lT2hFSRotsxK4qw7SLCA-191">
          <mxGeometry relative="1" as="geometry" />
        </mxCell>
        <mxCell id="lT2hFSRotsxK4qw7SLCA-184" value="매출 관리" style="whiteSpace=wrap;html=1;fillColor=#dae8fc;strokeColor=#6c8ebf;rounded=1;fontSize=21;" vertex="1" parent="1">
          <mxGeometry x="1340" y="1515" width="120" height="60" as="geometry" />
        </mxCell>
        <mxCell id="lT2hFSRotsxK4qw7SLCA-204" style="edgeStyle=orthogonalEdgeStyle;rounded=0;orthogonalLoop=1;jettySize=auto;html=1;fontSize=21;" edge="1" parent="1" source="lT2hFSRotsxK4qw7SLCA-187" target="lT2hFSRotsxK4qw7SLCA-188">
          <mxGeometry relative="1" as="geometry" />
        </mxCell>
        <mxCell id="lT2hFSRotsxK4qw7SLCA-187" value="매출 정보 리스트" style="whiteSpace=wrap;html=1;fillColor=#dae8fc;strokeColor=#6c8ebf;rounded=1;fontSize=21;" vertex="1" parent="1">
          <mxGeometry x="1540" y="1435" width="120" height="60" as="geometry" />
        </mxCell>
        <mxCell id="lT2hFSRotsxK4qw7SLCA-188" value="다운로드" style="whiteSpace=wrap;html=1;fillColor=#dae8fc;strokeColor=#6c8ebf;rounded=1;fontSize=21;" vertex="1" parent="1">
          <mxGeometry x="1758" y="1435" width="120" height="60" as="geometry" />
        </mxCell>
        <mxCell id="lT2hFSRotsxK4qw7SLCA-191" value="영화별 매출 &lt;br style=&quot;font-size: 21px;&quot;&gt;리스트" style="whiteSpace=wrap;html=1;fontSize=21;fillColor=#dae8fc;strokeColor=#6c8ebf;rounded=1;" vertex="1" parent="1">
          <mxGeometry x="1540" y="1575" width="120" height="60" as="geometry" />
        </mxCell>
        <mxCell id="lT2hFSRotsxK4qw7SLCA-193" style="edgeStyle=orthogonalEdgeStyle;rounded=0;orthogonalLoop=1;jettySize=auto;html=1;entryX=0;entryY=0.5;entryDx=0;entryDy=0;fontSize=21;" edge="1" parent="1" source="lT2hFSRotsxK4qw7SLCA-195" target="lT2hFSRotsxK4qw7SLCA-199">
          <mxGeometry relative="1" as="geometry" />
        </mxCell>
        <mxCell id="lT2hFSRotsxK4qw7SLCA-194" style="edgeStyle=orthogonalEdgeStyle;rounded=0;orthogonalLoop=1;jettySize=auto;html=1;entryX=0;entryY=0.5;entryDx=0;entryDy=0;fontSize=21;" edge="1" parent="1" source="lT2hFSRotsxK4qw7SLCA-195" target="lT2hFSRotsxK4qw7SLCA-198">
          <mxGeometry relative="1" as="geometry" />
        </mxCell>
        <mxCell id="lT2hFSRotsxK4qw7SLCA-195" value="회원 관리" style="whiteSpace=wrap;html=1;fillColor=#dae8fc;strokeColor=#6c8ebf;rounded=1;fontSize=21;" vertex="1" parent="1">
          <mxGeometry x="1340" y="1815" width="120" height="60" as="geometry" />
        </mxCell>
        <mxCell id="lT2hFSRotsxK4qw7SLCA-196" value="" style="edgeStyle=orthogonalEdgeStyle;rounded=0;orthogonalLoop=1;jettySize=auto;html=1;fontSize=21;" edge="1" parent="1" target="lT2hFSRotsxK4qw7SLCA-200">
          <mxGeometry relative="1" as="geometry">
            <mxPoint x="1646" y="1905" as="sourcePoint" />
          </mxGeometry>
        </mxCell>
        <mxCell id="lT2hFSRotsxK4qw7SLCA-197" value="" style="edgeStyle=orthogonalEdgeStyle;rounded=0;orthogonalLoop=1;jettySize=auto;html=1;fontSize=21;entryX=0;entryY=0.5;entryDx=0;entryDy=0;" edge="1" parent="1" source="lT2hFSRotsxK4qw7SLCA-198" target="lT2hFSRotsxK4qw7SLCA-205">
          <mxGeometry relative="1" as="geometry">
            <mxPoint x="1740" y="1785" as="targetPoint" />
          </mxGeometry>
        </mxCell>
        <mxCell id="lT2hFSRotsxK4qw7SLCA-198" value="회원 리스트" style="whiteSpace=wrap;html=1;fillColor=#dae8fc;strokeColor=#6c8ebf;rounded=1;fontSize=21;" vertex="1" parent="1">
          <mxGeometry x="1540" y="1755" width="120" height="60" as="geometry" />
        </mxCell>
        <mxCell id="lT2hFSRotsxK4qw7SLCA-199" value="회원 정보" style="whiteSpace=wrap;html=1;fillColor=#dae8fc;strokeColor=#6c8ebf;rounded=1;fontSize=21;" vertex="1" parent="1">
          <mxGeometry x="1540" y="1875" width="120" height="60" as="geometry" />
        </mxCell>
        <mxCell id="lT2hFSRotsxK4qw7SLCA-200" value="&amp;nbsp;수정 / 삭제" style="whiteSpace=wrap;html=1;fontSize=21;fillColor=#dae8fc;strokeColor=#6c8ebf;rounded=1;" vertex="1" parent="1">
          <mxGeometry x="1758" y="1875" width="128" height="60" as="geometry" />
        </mxCell>
        <mxCell id="lT2hFSRotsxK4qw7SLCA-202" value="로그인 서비스" style="edgeStyle=orthogonalEdgeStyle;rounded=0;orthogonalLoop=1;jettySize=auto;html=1;fontSize=21;" edge="1" parent="1" target="lT2hFSRotsxK4qw7SLCA-195">
          <mxGeometry relative="1" as="geometry">
            <mxPoint x="1159.9999999999995" y="1359" as="sourcePoint" />
            <mxPoint x="1334" y="2208.9999999999995" as="targetPoint" />
            <Array as="points">
              <mxPoint x="1160" y="1850" />
            </Array>
          </mxGeometry>
        </mxCell>
        <mxCell id="lT2hFSRotsxK4qw7SLCA-205" value="다운로드" style="whiteSpace=wrap;html=1;fillColor=#dae8fc;strokeColor=#6c8ebf;rounded=1;fontSize=21;" vertex="1" parent="1">
          <mxGeometry x="1762" y="1755" width="120" height="60" as="geometry" />
        </mxCell>
        <mxCell id="lT2hFSRotsxK4qw7SLCA-207" style="edgeStyle=orthogonalEdgeStyle;rounded=0;orthogonalLoop=1;jettySize=auto;html=1;entryX=0;entryY=0.5;entryDx=0;entryDy=0;fontSize=21;" edge="1" parent="1" source="lT2hFSRotsxK4qw7SLCA-209" target="lT2hFSRotsxK4qw7SLCA-213">
          <mxGeometry relative="1" as="geometry" />
        </mxCell>
        <mxCell id="lT2hFSRotsxK4qw7SLCA-208" style="edgeStyle=orthogonalEdgeStyle;rounded=0;orthogonalLoop=1;jettySize=auto;html=1;entryX=0;entryY=0.5;entryDx=0;entryDy=0;fontSize=21;" edge="1" parent="1" source="lT2hFSRotsxK4qw7SLCA-209" target="lT2hFSRotsxK4qw7SLCA-212">
          <mxGeometry relative="1" as="geometry" />
        </mxCell>
        <mxCell id="lT2hFSRotsxK4qw7SLCA-227" style="edgeStyle=orthogonalEdgeStyle;rounded=0;orthogonalLoop=1;jettySize=auto;html=1;entryX=0;entryY=0.5;entryDx=0;entryDy=0;fontSize=21;" edge="1" parent="1" source="lT2hFSRotsxK4qw7SLCA-209" target="lT2hFSRotsxK4qw7SLCA-226">
          <mxGeometry relative="1" as="geometry" />
        </mxCell>
        <mxCell id="lT2hFSRotsxK4qw7SLCA-209" value="커뮤니티" style="whiteSpace=wrap;html=1;fillColor=#dae8fc;strokeColor=#6c8ebf;rounded=1;fontSize=21;" vertex="1" parent="1">
          <mxGeometry x="1334" y="2105" width="120" height="60" as="geometry" />
        </mxCell>
        <mxCell id="lT2hFSRotsxK4qw7SLCA-210" value="" style="edgeStyle=orthogonalEdgeStyle;rounded=0;orthogonalLoop=1;jettySize=auto;html=1;fontSize=21;" edge="1" parent="1" target="lT2hFSRotsxK4qw7SLCA-214">
          <mxGeometry relative="1" as="geometry">
            <mxPoint x="1646" y="2135" as="sourcePoint" />
          </mxGeometry>
        </mxCell>
        <mxCell id="lT2hFSRotsxK4qw7SLCA-211" value="" style="edgeStyle=orthogonalEdgeStyle;rounded=0;orthogonalLoop=1;jettySize=auto;html=1;fontSize=21;entryX=0;entryY=0.5;entryDx=0;entryDy=0;" edge="1" parent="1" source="lT2hFSRotsxK4qw7SLCA-212" target="lT2hFSRotsxK4qw7SLCA-215">
          <mxGeometry relative="1" as="geometry">
            <mxPoint x="1740" y="2015" as="targetPoint" />
          </mxGeometry>
        </mxCell>
        <mxCell id="lT2hFSRotsxK4qw7SLCA-212" value="번개모임" style="whiteSpace=wrap;html=1;fillColor=#dae8fc;strokeColor=#6c8ebf;rounded=1;fontSize=21;" vertex="1" parent="1">
          <mxGeometry x="1540" y="1985" width="120" height="60" as="geometry" />
        </mxCell>
        <mxCell id="lT2hFSRotsxK4qw7SLCA-213" value="영화관 후기" style="whiteSpace=wrap;html=1;fillColor=#dae8fc;strokeColor=#6c8ebf;rounded=1;fontSize=21;" vertex="1" parent="1">
          <mxGeometry x="1540" y="2105" width="120" height="60" as="geometry" />
        </mxCell>
        <mxCell id="lT2hFSRotsxK4qw7SLCA-214" value="&amp;nbsp;수정 / 삭제" style="whiteSpace=wrap;html=1;fontSize=21;fillColor=#dae8fc;strokeColor=#6c8ebf;rounded=1;" vertex="1" parent="1">
          <mxGeometry x="1758" y="2105" width="128" height="60" as="geometry" />
        </mxCell>
        <mxCell id="lT2hFSRotsxK4qw7SLCA-215" value="&amp;nbsp;수정 / 삭제" style="whiteSpace=wrap;html=1;fillColor=#dae8fc;strokeColor=#6c8ebf;rounded=1;fontSize=21;" vertex="1" parent="1">
          <mxGeometry x="1762" y="1985" width="120" height="60" as="geometry" />
        </mxCell>
        <mxCell id="lT2hFSRotsxK4qw7SLCA-216" style="edgeStyle=orthogonalEdgeStyle;rounded=0;orthogonalLoop=1;jettySize=auto;html=1;entryX=0;entryY=0.5;entryDx=0;entryDy=0;fontSize=21;" edge="1" parent="1" source="lT2hFSRotsxK4qw7SLCA-218" target="lT2hFSRotsxK4qw7SLCA-222">
          <mxGeometry relative="1" as="geometry" />
        </mxCell>
        <mxCell id="lT2hFSRotsxK4qw7SLCA-217" style="edgeStyle=orthogonalEdgeStyle;rounded=0;orthogonalLoop=1;jettySize=auto;html=1;entryX=0;entryY=0.5;entryDx=0;entryDy=0;fontSize=21;" edge="1" parent="1" source="lT2hFSRotsxK4qw7SLCA-218" target="lT2hFSRotsxK4qw7SLCA-221">
          <mxGeometry relative="1" as="geometry" />
        </mxCell>
        <mxCell id="lT2hFSRotsxK4qw7SLCA-218" value="고객센터" style="whiteSpace=wrap;html=1;fillColor=#dae8fc;strokeColor=#6c8ebf;rounded=1;fontSize=21;" vertex="1" parent="1">
          <mxGeometry x="1340" y="2365" width="120" height="60" as="geometry" />
        </mxCell>
        <mxCell id="lT2hFSRotsxK4qw7SLCA-219" value="" style="edgeStyle=orthogonalEdgeStyle;rounded=0;orthogonalLoop=1;jettySize=auto;html=1;fontSize=21;" edge="1" parent="1" target="lT2hFSRotsxK4qw7SLCA-223">
          <mxGeometry relative="1" as="geometry">
            <mxPoint x="1646" y="2455.0000000000005" as="sourcePoint" />
          </mxGeometry>
        </mxCell>
        <mxCell id="lT2hFSRotsxK4qw7SLCA-220" value="" style="edgeStyle=orthogonalEdgeStyle;rounded=0;orthogonalLoop=1;jettySize=auto;html=1;fontSize=21;entryX=0;entryY=0.5;entryDx=0;entryDy=0;" edge="1" parent="1" source="lT2hFSRotsxK4qw7SLCA-221" target="lT2hFSRotsxK4qw7SLCA-232">
          <mxGeometry relative="1" as="geometry">
            <mxPoint x="1758" y="2335.0000000000005" as="targetPoint" />
          </mxGeometry>
        </mxCell>
        <mxCell id="lT2hFSRotsxK4qw7SLCA-221" value="공지사항" style="whiteSpace=wrap;html=1;fillColor=#dae8fc;strokeColor=#6c8ebf;rounded=1;fontSize=21;" vertex="1" parent="1">
          <mxGeometry x="1540" y="2305" width="120" height="60" as="geometry" />
        </mxCell>
        <mxCell id="lT2hFSRotsxK4qw7SLCA-222" value="문의사항" style="whiteSpace=wrap;html=1;fillColor=#dae8fc;strokeColor=#6c8ebf;rounded=1;fontSize=21;" vertex="1" parent="1">
          <mxGeometry x="1540" y="2425" width="120" height="60" as="geometry" />
        </mxCell>
        <mxCell id="lT2hFSRotsxK4qw7SLCA-223" value="&amp;nbsp;수정 / 삭제" style="whiteSpace=wrap;html=1;fontSize=21;fillColor=#dae8fc;strokeColor=#6c8ebf;rounded=1;" vertex="1" parent="1">
          <mxGeometry x="1758" y="2425" width="128" height="60" as="geometry" />
        </mxCell>
        <mxCell id="lT2hFSRotsxK4qw7SLCA-226" value="자유게시판" style="whiteSpace=wrap;html=1;fillColor=#dae8fc;strokeColor=#6c8ebf;rounded=1;fontSize=21;" vertex="1" parent="1">
          <mxGeometry x="1540" y="2205" width="120" height="60" as="geometry" />
        </mxCell>
        <mxCell id="lT2hFSRotsxK4qw7SLCA-228" value="" style="edgeStyle=orthogonalEdgeStyle;rounded=0;orthogonalLoop=1;jettySize=auto;fontSize=21;" edge="1" parent="1" target="lT2hFSRotsxK4qw7SLCA-229">
          <mxGeometry relative="1" as="geometry">
            <mxPoint x="1646" y="2235.0000000000005" as="sourcePoint" />
          </mxGeometry>
        </mxCell>
        <mxCell id="lT2hFSRotsxK4qw7SLCA-229" value="수정 / 삭제" style="whiteSpace=wrap;fontSize=21;fillColor=#dae8fc;strokeColor=#6c8ebf;rounded=1;" vertex="1" parent="1">
          <mxGeometry x="1758" y="2205" width="128" height="60" as="geometry" />
        </mxCell>
        <mxCell id="lT2hFSRotsxK4qw7SLCA-230" value="로그인 서비스" style="edgeStyle=orthogonalEdgeStyle;rounded=0;orthogonalLoop=1;jettySize=auto;html=1;fontSize=21;" edge="1" parent="1" target="lT2hFSRotsxK4qw7SLCA-209">
          <mxGeometry relative="1" as="geometry">
            <mxPoint x="1159.9999999999995" y="1650" as="sourcePoint" />
            <mxPoint x="1334" y="2480.9999999999995" as="targetPoint" />
            <Array as="points">
              <mxPoint x="1160" y="2140" />
              <mxPoint x="1334" y="2140" />
              <mxPoint x="1334" y="2135" />
            </Array>
          </mxGeometry>
        </mxCell>
        <mxCell id="lT2hFSRotsxK4qw7SLCA-231" value="로그인 서비스" style="edgeStyle=orthogonalEdgeStyle;rounded=0;orthogonalLoop=1;jettySize=auto;html=1;fontSize=21;entryX=0;entryY=0.5;entryDx=0;entryDy=0;" edge="1" parent="1" target="lT2hFSRotsxK4qw7SLCA-218">
          <mxGeometry relative="1" as="geometry">
            <mxPoint x="1159.9999999999995" y="1910" as="sourcePoint" />
            <mxPoint x="1334" y="2741" as="targetPoint" />
            <Array as="points">
              <mxPoint x="1160" y="2400" />
              <mxPoint x="1340" y="2400" />
            </Array>
          </mxGeometry>
        </mxCell>
        <mxCell id="lT2hFSRotsxK4qw7SLCA-232" value="등록&amp;nbsp; / 수정 / 삭제" style="whiteSpace=wrap;html=1;fontSize=21;fillColor=#dae8fc;strokeColor=#6c8ebf;rounded=1;" vertex="1" parent="1">
          <mxGeometry x="1758" y="2305" width="188" height="60" as="geometry" />
        </mxCell>
      </root>
    </mxGraphModel>
  </diagram>
</mxfile>
